<svg width="60" height="19" viewBox="0 0 60 19" fill="none" xmlns="http://www.w3.org/2000/svg">
<path d="M0.517045 18V0.545454H12.0739V3.58807H4.20739V7.74716H11.3068V10.7898H4.20739V18H0.517045ZM14.0761 18V0.545454H17.7664V14.9574H25.2494V18H14.0761ZM37.9945 0.545454H41.6849V11.8807C41.6849 13.1534 41.3809 14.267 40.773 15.2216C40.1707 16.1761 39.3269 16.9205 38.2417 17.4545C37.1565 17.983 35.8923 18.2472 34.4491 18.2472C33.0002 18.2472 31.7332 17.983 30.648 17.4545C29.5627 16.9205 28.719 16.1761 28.1167 15.2216C27.5144 14.267 27.2133 13.1534 27.2133 11.8807V0.545454H30.9036V11.5653C30.9036 12.2301 31.0485 12.821 31.3383 13.3381C31.6338 13.8551 32.0485 14.2614 32.5826 14.5568C33.1167 14.8523 33.7389 15 34.4491 15C35.165 15 35.7872 14.8523 36.3156 14.5568C36.8497 14.2614 37.2616 13.8551 37.5514 13.3381C37.8468 12.821 37.9945 12.2301 37.9945 11.5653V0.545454ZM47.7013 0.545454L51.2212 6.49432H51.3576L54.8945 0.545454H59.0621L53.7354 9.27273L59.1815 18H54.9371L51.3576 12.0426H51.2212L47.6417 18H43.4144L48.8775 9.27273L43.5167 0.545454H47.7013Z" fill="#202020"/>
</svg>